<svg width="2000" height="2000" viewBox="0 0 2000 2000" fill="none" xmlns="http://www.w3.org/2000/svg">
<rect width="2000" height="2000" fill="white"/>
<path fill-rule="evenodd" clip-rule="evenodd" d="M946.784 686.039C931.467 693.693 917.623 716.725 909.151 748.646C903.443 770.154 900.028 793.324 897.527 827.5C896.072 847.394 896.097 847.361 881.296 849.452C875.619 850.253 875.417 849.578 878.589 840.407C881.043 833.313 881.298 824.354 879.162 820.225C872.93 808.174 842.658 798.389 819.424 800.917C799.096 803.128 780.693 811.915 770.31 824.368C755.228 842.454 747.643 860.776 743.376 889.426C742.633 894.411 741.516 898.524 740.846 898.743C740.083 898.991 738.519 895.376 736.552 888.817C725.712 852.664 718.876 839.512 709.634 837.024C695.849 833.312 670.334 850.33 671.867 862.214C672.131 864.257 676.847 875.282 682.349 886.714C697.638 918.485 703.785 935.338 712.547 969.5C719.908 998.199 725.28 1026.92 727.093 1047.28C728.346 1061.34 732.888 1065 749.114 1065C765.879 1065 774.482 1060.97 778.135 1051.41C779.616 1047.53 779.762 1044.72 779.186 1031.2C778.818 1022.57 778.077 1011.45 777.538 1006.5C775.718 989.774 775.244 962.006 776.471 944C779.783 895.421 786.918 869.705 801.043 855.435C808.08 848.325 813.108 846.411 822.505 847.263C829.573 847.903 836.958 851.58 835.941 853.951C832.8 861.273 832.363 863.973 832.781 873.5C833.255 884.304 835.376 890.367 839.755 893.434C842.641 895.455 852.271 895.48 868.084 893.508C890.69 890.688 894.609 891.717 894.491 900.439C894.172 924.161 895.747 1046.27 896.53 1058.5C899.113 1098.85 899.675 1106.47 901.135 1121C902.943 1138.99 904.26 1142.63 909.984 1145.42C920.294 1150.45 946.585 1144.93 956.315 1135.68C962.021 1130.25 962.41 1125.51 958.959 1103.39C951.045 1052.66 946.708 1004.9 944.578 945C943.335 910.031 944.19 891.912 947.227 888.875C949.018 887.084 952.625 886.437 974.667 883.951C1013.59 879.562 1017.86 878.937 1020.55 877.234C1026.32 873.579 1028.56 868.05 1029.27 855.772C1029.91 844.695 1028.19 838.126 1023.93 835.331C1021.12 833.488 1021.92 833.413 990.046 838.463C961.255 843.024 951.795 843.763 949.046 841.667C947.252 840.3 947.066 839.1 947.245 830.015C947.562 813.842 950.025 798.67 955.748 777.644C962.41 753.162 973.32 734.943 987.59 724.467C990.199 722.553 992.599 719.924 992.925 718.626C993.754 715.323 991.165 707.277 987.486 701.723C981.514 692.706 965.51 683 956.617 683C954.439 683 950.315 684.275 946.784 686.039ZM1488.05 724.627C1470.34 728.329 1468.6 736.737 1476.41 781C1490.2 859.247 1490.19 859.154 1486.3 862.701C1482.68 865.99 1480.53 866.777 1466.41 869.951C1459.06 871.605 1448.21 874.281 1442.3 875.899C1436.38 877.517 1431.5 878.764 1431.44 878.67C1431.38 878.577 1431.14 876.025 1430.9 873C1429.38 853.984 1409.53 836.246 1382.59 829.831C1375.5 828.141 1371.83 827.876 1361.05 828.274C1346.94 828.795 1340.99 830.089 1327.55 835.561C1316.87 839.907 1309.97 844.55 1300.94 853.477C1287.47 866.779 1276.96 886.358 1271.3 908.68C1269.3 916.589 1269.07 919.928 1269.09 941C1269.11 961.796 1269.36 965.499 1271.29 973.178C1276.22 992.764 1284.52 1008.57 1296 1020.2C1320.4 1044.94 1355.75 1050.46 1397.05 1035.98C1418.23 1028.55 1437.48 1013.39 1440.64 1001.65C1444.51 987.263 1430.62 970.816 1419.43 976.538C1417.57 977.491 1412.45 980.853 1408.05 984.008C1391.29 996.021 1380.91 999.55 1364.73 998.731C1355.81 998.279 1353.55 997.787 1348.07 995.087C1329.9 986.14 1319.99 966.693 1318.84 937.703C1317.71 909.504 1324.87 887.934 1338.31 879.035C1348.49 872.287 1360.92 871.358 1370.59 876.619C1373.24 878.064 1379.16 882.679 1383.74 886.873C1388.32 891.068 1394.15 896.206 1396.71 898.291L1401.35 902.081L1400.81 910.022C1400.31 917.244 1400.48 918.28 1402.65 921.461C1403.97 923.385 1406.3 925.481 1407.84 926.119C1412.37 927.999 1424.8 926.553 1437.55 922.663C1462.47 915.057 1483.76 909.796 1489.35 909.862C1496.22 909.945 1498.14 911.607 1499.47 918.627C1501.63 929.99 1506.67 971.096 1509.02 996.5C1513.14 1040.95 1513.56 1044.31 1515.4 1047.46C1518.26 1052.4 1522.82 1054.35 1532.58 1054.82C1548.03 1055.55 1557.41 1051.99 1561.74 1043.75C1565.87 1035.87 1565.47 1015 1560.5 980C1556.45 951.425 1551.55 911.797 1551.55 907.668C1551.55 899.128 1555.18 897.864 1585.05 896.029C1594.95 895.421 1609.26 894.245 1616.86 893.415C1624.46 892.585 1631.55 892.183 1632.61 892.521C1634.19 893.022 1634.55 894.071 1634.55 898.252C1634.55 906.963 1637.35 911.152 1647.63 917.776C1652.52 920.924 1656.79 924.335 1657.13 925.356C1657.47 926.377 1657.17 933.19 1656.47 940.496C1655.05 955.278 1655.87 966.034 1659.51 980.5C1663.41 995.997 1674.56 1014.51 1686.63 1025.53C1716.83 1053.1 1763.77 1062.38 1802.56 1048.44C1838.98 1035.35 1866.97 1006.56 1876.91 971.954C1886.95 937.014 1878.23 897.709 1854.38 870.386C1839.42 853.244 1823.54 842.619 1802.22 835.491C1788.07 830.762 1779.7 829.661 1762.55 830.274C1749.95 830.723 1746 831.313 1732.51 834.759C1710.29 840.434 1690.58 848.778 1672.88 860.001C1670.28 861.65 1667.62 863 1666.96 863C1666.3 863 1665.47 861.415 1665.11 859.479C1664.25 854.892 1659.39 849.434 1654.83 847.929C1651.07 846.687 1632.3 847.235 1618.05 849.004C1614.2 849.482 1604.07 850.562 1595.55 851.404C1550.56 855.85 1548.96 855.899 1545.2 852.946C1541.71 850.196 1541.12 847.575 1537.54 818.5C1533.83 788.468 1527.04 744.502 1525 737.317C1524.19 734.466 1522.37 730.76 1520.96 729.083C1516.09 723.295 1502.93 721.514 1488.05 724.627ZM263.546 774.615C224.62 778.158 195.941 784.759 173.046 795.445C151.385 805.556 134.131 820.093 127.285 834C115.107 858.739 114.903 878.384 126.708 889.699C131.545 894.335 136.342 896 144.865 896C157.184 896 163.69 892.571 168.223 883.688C170.568 879.091 170.957 876.849 171.632 864C172.051 856.025 172.845 848.322 173.395 846.881C175.992 840.091 184.816 837.832 190.399 842.53C196.001 847.244 198.396 858.418 201.988 896.61C207.298 953.064 211.086 1002.88 212.91 1040.26C214.338 1069.52 214.257 1069.25 223.043 1073.85C227.324 1076.1 229.253 1076.45 237.038 1076.45C251.035 1076.45 259.43 1072.04 262.411 1063.1C263.973 1058.42 263.811 1037.77 262.056 1018C261.25 1008.93 260.328 995.2 260.005 987.5C259.253 969.534 259.032 969.865 274.068 966.485C296.655 961.407 317.048 954.283 337.046 944.484C372.805 926.962 394.699 907.184 406.516 881.727C411.133 871.782 412.546 865.481 412.546 854.845C412.546 815.268 375.817 784.965 317.546 776.466C307.347 774.979 272.628 773.789 263.546 774.615ZM304.944 821.957C331.363 827.682 350.92 838.266 358.298 850.833C364.047 860.627 361.116 872.151 350.022 883.365C337.536 895.987 309.312 912.313 286.546 920.082C276.19 923.616 272.694 924.361 266.169 924.424C255.028 924.532 255.228 924.912 252.091 897.5C250.706 885.4 248.919 870.045 248.12 863.378C247.322 856.711 246.354 846.266 245.968 840.166C245.372 830.744 245.514 828.697 246.915 826.559C250.719 820.755 259.014 818.978 280.046 819.465C290.515 819.707 298.035 820.46 304.944 821.957ZM547.046 840.134C534.928 841.66 524.412 844.838 512.993 850.426C486.583 863.35 465.888 883.992 451.647 911.614C445.684 923.181 444.378 924.179 434.142 924.992C424.484 925.759 421.46 927.278 418.674 932.765C415.926 938.175 414.242 947.48 415.036 952.869C416.474 962.634 420.67 967.14 429.546 968.455C439.491 969.929 439.255 969.625 447.569 991.709C453.154 1006.54 463.712 1020.43 477.017 1030.45C497.161 1045.61 519.291 1052.24 549.53 1052.18C583.928 1052.11 618.941 1041.41 649.354 1021.67C666.193 1010.75 672.546 1003.73 672.546 996.07C672.546 983.146 657.319 968.443 647.485 971.872C645.906 972.422 639.762 976.184 633.83 980.233C614.081 993.713 598.872 1000.51 577.022 1005.63C566.184 1008.17 542.793 1008.23 533.743 1005.75C516.137 1000.91 504.111 992.996 498.983 982.875C495.596 976.192 495.756 971.842 499.504 968.688C502.716 965.986 504.582 965.635 524.546 963.979C571.38 960.095 595.165 957.491 606.829 954.972C622.146 951.663 635.376 942.973 641.807 931.997C647.352 922.534 649.091 907.405 646.007 895.46C636.175 857.37 594.629 834.143 547.046 840.134ZM1137.89 840.132C1109.67 844.189 1087 856.236 1065.5 878.612C1056.12 888.371 1051.73 894.427 1043.1 909.5C1034.96 923.733 1034.42 924.174 1024.37 924.982C1019.79 925.35 1015.05 926.275 1013.84 927.039C1007.96 930.735 1003.55 945.889 1005.55 955.507C1007.33 964.075 1012 967.662 1023.8 969.506C1028.53 970.245 1029.54 971.777 1035.01 986.454C1040.28 1000.61 1043.84 1006.61 1053.61 1017.82C1073.21 1040.31 1103.93 1052.34 1141.55 1052.26C1163.29 1052.22 1181.34 1048.57 1205.26 1039.37C1219.8 1033.78 1228.01 1029.6 1239.61 1021.88C1256.27 1010.78 1262.81 1002.15 1260.98 993.666C1259.26 985.652 1253.11 976.934 1247.15 974.05C1239.02 970.114 1234.5 971.303 1222.48 980.55C1208.18 991.549 1184.64 1001.87 1164.23 1006.1C1141.38 1010.82 1114.8 1006.32 1098.66 994.996C1086.52 986.481 1082.24 975.891 1088.56 969.99C1092.12 966.663 1096.76 965.762 1122.05 963.492C1175.35 958.706 1196.7 955.8 1206.95 951.933C1218.5 947.577 1228.73 938.497 1233.84 928.058C1236.92 921.762 1237.04 921.021 1237 909.5C1236.97 899.667 1236.55 896.326 1234.68 891C1229.32 875.664 1217.29 860.741 1203.92 852.85C1185.11 841.741 1160.14 836.933 1137.89 840.132ZM1780.11 879.017C1809.87 886.627 1830.58 914.721 1830.53 947.41C1830.5 966.801 1826.12 977.471 1812.58 991.096C1802.55 1001.2 1793.61 1006.16 1781.21 1008.51C1767 1011.21 1755.49 1009.68 1742.55 1003.37C1731.41 997.947 1720.09 986.133 1714.15 973.727C1708.33 961.579 1706.49 954.011 1705.84 939.5C1704.58 911.747 1713.92 892.295 1732.97 882.974C1745.55 876.819 1765.1 875.177 1780.11 879.017ZM1159.97 886.675C1167.85 888.632 1174.69 892.197 1177.92 896.028C1183.31 902.443 1180.29 910.517 1171.55 913.047C1161.79 915.871 1110.05 923 1099.33 923C1088.39 923 1085.78 918.518 1091.6 909.725C1097.83 900.32 1119.5 888.618 1136.31 885.579C1144.63 884.073 1150.62 884.351 1159.97 886.675ZM571.085 886.549C580.652 889.035 586.668 892.887 589.371 898.256C591.631 902.745 591.649 902.979 589.986 906.482C587.889 910.903 585.164 912.378 575.355 914.404C561.598 917.246 515.182 923.078 508.649 922.786C503.053 922.536 502.002 922.166 500.268 919.837C497.68 916.363 498.491 913.173 503.32 907.824C518.971 890.487 549.437 880.923 571.085 886.549ZM1410.74 1197.11C1401.85 1197.96 1396.87 1200.88 1392.96 1207.56C1390.7 1211.41 1390.18 1213.7 1389.77 1221.54L1389.28 1230.92L1382.16 1231.21L1375.05 1231.5V1236V1240.5L1382.28 1240.79L1389.52 1241.09L1389.78 1278.29L1390.05 1315.5H1395.05H1400.05L1400.31 1278.25L1400.57 1241H1410.11H1419.66L1419.35 1236.25L1419.05 1231.5L1409.8 1231.21L1400.55 1230.93V1223.41C1400.55 1210.97 1403.86 1207 1414.27 1207H1420.55V1202.11C1420.55 1199.07 1420.07 1197.06 1419.3 1196.81C1418.61 1196.59 1414.76 1196.72 1410.74 1197.11ZM373.546 1256.5V1316H378.53H383.513L383.78 1257.5C383.926 1225.32 383.895 1198.55 383.712 1198C383.528 1197.45 381.166 1197 378.462 1197H373.546V1256.5ZM838.944 1198.41C838.647 1199.18 838.549 1220.9 838.725 1246.68L839.046 1293.55L842.333 1300.22C846.314 1308.3 852.617 1314.2 859.271 1316.06C861.881 1316.79 868.353 1317.37 873.653 1317.35C881.493 1317.31 884.142 1316.89 887.861 1315.09C893.918 1312.16 899.652 1306.46 902.627 1300.42L905.046 1295.5L905.332 1246.25L905.618 1197H900.082H894.546V1245.3V1293.61L891.659 1298.16C887.675 1304.44 882.187 1307 872.69 1307C865.043 1307 860.315 1305.32 855.686 1300.94C850.603 1296.15 850.546 1295.52 850.546 1244.53V1197H845.015C841.186 1197 839.317 1197.43 838.944 1198.41ZM1063.55 1203.5V1210H1069.55H1075.55V1203.5V1197H1069.55H1063.55V1203.5ZM1101.55 1256.5V1316H1106.55H1111.55V1256.5V1197H1106.55H1101.55V1256.5ZM1176.55 1256.42V1316H1181.55H1186.55L1186.67 1296C1186.74 1285 1186.91 1275.55 1187.05 1275C1187.18 1274.45 1187.35 1273.1 1187.42 1272C1187.54 1270.09 1188.25 1270 1203.96 1270H1220.37L1226.66 1266.74C1238.17 1260.78 1242.84 1251.34 1242.84 1234C1242.84 1215.64 1237.46 1205.07 1225.05 1199.05C1222.77 1197.95 1216.52 1197.51 1199.3 1197.22L1176.55 1196.84V1256.42ZM1221.55 1208.9C1229.26 1213.06 1232.04 1219.82 1231.96 1234.21C1231.91 1242.92 1231.6 1244.51 1228.97 1249.64C1226.69 1254.08 1225.06 1255.87 1221.59 1257.7C1217.4 1259.91 1216.24 1260.03 1202.09 1259.78L1187.05 1259.5L1186.78 1234.52C1186.63 1220.78 1186.75 1208.92 1187.04 1208.16C1187.76 1206.27 1217.85 1206.91 1221.55 1208.9ZM418.546 1209.89C416.114 1210.57 416.037 1210.86 415.76 1220.79L415.475 1231H408.01H400.546V1236V1241H408.046H415.546L415.552 1268.25C415.555 1283.94 415.995 1297.08 416.591 1299.22C418.021 1304.37 423.288 1310.93 427.91 1313.32C432.013 1315.44 445.846 1316.94 446.815 1315.37C447.112 1314.89 447.115 1312.36 446.82 1309.75L446.285 1305H440.866C437.886 1305 434.084 1304.29 432.418 1303.43C426.995 1300.63 426.546 1297.92 426.546 1268.03V1241H436.546H446.546V1236V1231H436.546H426.546L426.367 1225.75C426.269 1222.86 426.156 1217.91 426.117 1214.75C426.048 1209.28 425.927 1209 423.546 1209.1C422.171 1209.15 419.921 1209.51 418.546 1209.89ZM676.796 1210.12L673.546 1211.06V1221.03V1231H666.605C662.787 1231 659.443 1231.36 659.173 1231.8C658.902 1232.23 658.935 1234.48 659.245 1236.8L659.809 1241H666.609H673.409L673.727 1269.75L674.046 1298.5L676.932 1303.71C680.144 1309.5 685.461 1313.73 691.23 1315.07C696.521 1316.3 704.294 1316.22 705.09 1314.93C705.454 1314.34 705.453 1311.86 705.088 1309.43L704.423 1305H698.367C692.665 1305 692.083 1304.77 688.428 1301.12L684.546 1297.23V1269.12V1241H694.527C704.226 1241 704.525 1240.93 705.11 1238.6C705.441 1237.28 705.562 1235.15 705.379 1233.85C705.057 1231.58 704.7 1231.49 694.796 1231.21L684.546 1230.93V1219.96C684.546 1207.72 684.652 1207.85 676.796 1210.12ZM1014.8 1210.12L1011.55 1211.06V1221.03V1231H1004.05H996.546V1236V1241H1004.05H1011.55V1268.63C1011.55 1299.17 1011.92 1301.74 1017.31 1308.03C1022.17 1313.71 1025.46 1315.12 1034.39 1315.32L1042.05 1315.5L1042.34 1310.89L1042.64 1306.29L1036.56 1305.73C1029.91 1305.13 1026.52 1303.42 1023.81 1299.28C1022.25 1296.91 1022.01 1293.33 1021.72 1268.8L1021.4 1241H1031.97H1042.55V1236V1231H1032.05H1021.55V1220C1021.55 1207.85 1021.73 1208.12 1014.8 1210.12ZM1594.55 1209.89C1592.11 1210.57 1592.04 1210.86 1591.76 1220.79L1591.48 1231H1583.96H1576.44L1576.74 1235.75L1577.05 1240.5L1584.3 1240.79L1591.55 1241.09V1269.4C1591.55 1288.14 1591.94 1298.85 1592.7 1301.1C1595.86 1310.42 1602.89 1315.12 1614.68 1315.8L1622.55 1316.26V1310.63V1305H1616.95C1613.87 1305 1609.85 1304.29 1608.02 1303.42C1601.94 1300.53 1601.55 1298.41 1601.55 1268.1V1241H1612.1H1622.66L1622.35 1236.25L1622.05 1231.5L1611.8 1231.21L1601.55 1230.93V1219.96C1601.55 1207.87 1601.59 1207.94 1594.55 1209.89ZM481.632 1230.72C475.569 1232.86 469.221 1239.45 467.115 1245.79C465.664 1250.16 465.461 1254.44 465.73 1275.2L466.046 1299.5L468.776 1304.15C474.49 1313.86 481.021 1317.25 494.069 1317.26C504.004 1317.27 509.444 1315.36 514.277 1310.17C517.795 1306.38 521.171 1299.23 521.817 1294.19C522.419 1289.51 522.012 1289.12 514.918 1287.57L511.79 1286.9L511.118 1292.26C509.788 1302.9 504.583 1307.41 493.546 1307.47C486.157 1307.5 480.546 1304.83 478.107 1300.12C476.938 1297.86 476.013 1284.23 476.454 1275.75C476.538 1274.14 478.319 1274 499.046 1274H521.546V1262.18C521.546 1247.73 519.993 1242.39 514.072 1236.47C511.611 1234.01 507.924 1231.64 505.049 1230.66C498.983 1228.59 487.572 1228.62 481.632 1230.72ZM606.137 1230.52C597.682 1233.74 591.754 1241.4 590.089 1251.25C589.553 1254.42 589.731 1255 591.251 1255.01C592.238 1255.02 594.668 1255.29 596.65 1255.62C600.242 1256.21 600.255 1256.2 600.809 1252.07C601.492 1246.97 603.682 1243.5 607.767 1241.01C614.805 1236.73 624.088 1237.69 630.138 1243.31C632.849 1245.83 633.788 1247.71 634.615 1252.29C635.191 1255.47 635.523 1259.75 635.354 1261.79L635.046 1265.5L622.046 1266C610.439 1266.45 608.439 1266.8 603.395 1269.28C594.299 1273.74 590.01 1281.08 590.1 1292.03C590.164 1299.9 592.96 1306.4 598.29 1311.08C603.481 1315.64 607.511 1317 615.764 1316.99C623.679 1316.98 631.283 1314.27 634.951 1310.14C637.486 1307.29 637.891 1307.4 639.845 1311.5C640.961 1313.84 642.201 1315 643.591 1315C645.659 1315 645.667 1314.85 645.357 1281.75C645.015 1245.15 644.991 1244.99 638.516 1237.62C633.357 1231.74 628.412 1229.69 618.546 1229.33C612.763 1229.12 608.796 1229.5 606.137 1230.52ZM740.173 1230.47C734.102 1232.63 729.306 1237.07 726.046 1243.54L723.046 1249.5L723.126 1272.11C723.223 1299.59 723.81 1302.38 730.991 1309.53C734.352 1312.88 737.554 1315.02 740.546 1315.91C746.458 1317.67 760.31 1317.54 764.735 1315.69C772.825 1312.31 778.721 1304.3 780.078 1294.84C780.828 1289.61 780.048 1288.75 773.426 1287.51L769.843 1286.83L769.247 1292.61C768.207 1302.68 762.479 1307.5 751.546 1307.5C743.949 1307.5 739.169 1305.23 736.254 1300.24C734.253 1296.81 732.74 1281.35 733.939 1276.57L734.584 1274H757.711H780.837L780.306 1261.7C779.888 1252.02 779.299 1248.3 777.541 1244.21C773.201 1234.12 764.026 1228.95 750.614 1229.04C747.002 1229.07 742.303 1229.71 740.173 1230.47ZM949.485 1230.32C944.921 1231.6 939.998 1234.55 937.585 1237.45C935.643 1239.79 934.588 1239.35 932.982 1235.5C931.927 1232.98 930.895 1232 929.283 1232C926.756 1232.01 926.958 1226.02 927.368 1288.75L927.546 1316H932.546H937.546L937.57 1285.25C937.583 1268.34 938.009 1252.7 938.517 1250.5C940.244 1243.02 950.171 1236.9 957.88 1238.56C964.136 1239.91 968.257 1242.77 970.441 1247.28C972.447 1251.43 972.546 1253.14 972.546 1283.82V1316H977.546H982.546L982.54 1282.75C982.537 1263.88 982.106 1247.96 981.544 1245.94C980.195 1241.08 974.436 1234.6 969.293 1232.16C963.71 1229.51 955.226 1228.72 949.485 1230.32ZM1276.49 1229.89C1268.74 1232.41 1263.24 1237.54 1260.54 1244.74C1258.76 1249.51 1258.55 1252.53 1258.55 1273.17C1258.55 1288.38 1258.96 1297.67 1259.76 1300.38C1261.38 1305.86 1269.89 1314.45 1275.14 1315.91C1281.07 1317.55 1295.94 1317.28 1300.33 1315.45C1308.07 1312.22 1314.07 1303.86 1315.13 1294.87L1315.79 1289.3L1311.22 1288.15C1304.62 1286.49 1304.55 1286.52 1304.55 1291.77C1304.55 1301.92 1298.52 1307.5 1287.55 1307.5C1279.98 1307.5 1275.34 1305.31 1271.8 1300.05C1269.79 1297.07 1269.55 1295.47 1269.55 1285.35V1274H1292.68H1315.82L1315.28 1261.75C1314.71 1248.52 1313.76 1244.76 1309.41 1238.35C1305.2 1232.16 1299.22 1229.64 1288.05 1229.32C1283.1 1229.18 1277.89 1229.43 1276.49 1229.89ZM1361.86 1230.12C1355.04 1230.94 1352.89 1231.85 1347.25 1236.27C1343.59 1239.13 1343.39 1239.18 1342.02 1237.37C1341.24 1236.34 1340.34 1234.75 1340.03 1233.84C1339.45 1232.13 1336.87 1230.68 1335.71 1231.4C1335.12 1231.77 1334.96 1268.1 1335.39 1303.31L1335.55 1316.11L1340.3 1315.81L1345.05 1315.5L1345.55 1283C1345.88 1261.05 1346.42 1249.85 1347.2 1248.5C1350.37 1243.03 1356.84 1240.08 1365.8 1240.02L1369.55 1240V1235.06C1369.55 1232.34 1369.21 1229.95 1368.8 1229.75C1368.38 1229.54 1365.26 1229.71 1361.86 1230.12ZM1446.9 1230.57C1441.59 1232.53 1435.85 1238.1 1433.16 1243.93C1431.24 1248.08 1431.02 1250.61 1430.72 1271.6C1430.51 1286.02 1430.79 1296.2 1431.46 1298.7C1432.91 1304.07 1437.62 1310.36 1442.71 1313.73C1446.4 1316.17 1448.02 1316.54 1456.33 1316.85C1467.77 1317.27 1473.09 1315.94 1478.54 1311.27C1483.63 1306.91 1486.56 1301.28 1487.26 1294.48C1487.86 1288.68 1487.98 1288.8 1480.3 1287.44L1476.55 1286.78V1291.74C1476.55 1301.26 1469.62 1307.49 1459.05 1307.49C1452.31 1307.49 1447.64 1305.36 1444.15 1300.68C1442.34 1298.26 1442 1296.18 1441.71 1285.93L1441.38 1274H1464.58H1487.78L1487.34 1261.25C1486.84 1247.05 1485.57 1242.71 1480.24 1237.16C1474.77 1231.45 1470.16 1229.67 1460.05 1229.34C1453.81 1229.13 1449.77 1229.51 1446.9 1230.57ZM1525.54 1229.93C1520.75 1231.39 1516.88 1233.89 1513.34 1237.81C1507.46 1244.31 1507.04 1246.7 1507.08 1273.5C1507.11 1295.73 1507.26 1297.84 1509.21 1302.05C1511.89 1307.87 1516.82 1312.79 1522.47 1315.29C1528.56 1317.98 1541.29 1318.18 1547.77 1315.68C1556.68 1312.24 1563.55 1301.98 1563.55 1292.1C1563.55 1289.48 1563.07 1288.96 1559.8 1288.05C1553.25 1286.23 1552.55 1286.53 1552.55 1291.03C1552.55 1302.99 1542.6 1310.06 1530.17 1306.93C1526.99 1306.13 1524.51 1304.6 1522.14 1301.97C1517.74 1297.1 1517.18 1292.85 1517.71 1268.18C1518.06 1251.72 1518.36 1249 1520.11 1245.96C1525.58 1236.47 1543.9 1236.31 1550.15 1245.7C1551.32 1247.45 1552.58 1251.22 1552.96 1254.06C1553.64 1259.2 1553.66 1259.23 1556.72 1258.61C1558.41 1258.28 1560.64 1258 1561.67 1258C1563.13 1258 1563.55 1257.26 1563.55 1254.68C1563.55 1243.77 1556.25 1233.47 1546.46 1230.57C1540.99 1228.94 1529.9 1228.61 1525.54 1229.93ZM561.949 1231.08C560.246 1231.57 556.779 1233.8 554.243 1236.04L549.634 1240.09L547.569 1236.05C546.193 1233.35 544.836 1232 543.501 1232C541.523 1232 541.501 1232.55 541.772 1273.75L542.046 1315.5L547.296 1315.8L552.546 1316.1L552.548 1284.3C552.549 1256.02 552.743 1252.12 554.298 1249.02C557.061 1243.52 561.707 1241 569.087 1241C576.06 1241 576.546 1240.54 576.546 1233.92V1230L570.796 1230.09C567.633 1230.14 563.653 1230.58 561.949 1231.08ZM1064.32 1251.25C1064.17 1262.39 1064.17 1281.51 1064.33 1293.75L1064.62 1316H1069.58H1074.55L1074.7 1297.25C1074.78 1286.94 1074.83 1277.6 1074.82 1276.5C1074.8 1275.4 1074.73 1264.71 1074.66 1252.75L1074.55 1231H1069.57H1064.59L1064.32 1251.25ZM503.181 1240.66C508.459 1243.35 510.388 1247.64 510.751 1257.5L511.046 1265.5H493.546H476.046L475.742 1259.03C475.236 1248.25 479.082 1241.59 487.336 1238.94C491.403 1237.63 498.829 1238.44 503.181 1240.66ZM761.099 1240.59C766.622 1243.3 768.518 1247.22 769.237 1257.42L769.843 1266H751.554H733.264L733.783 1257.69C734.294 1249.49 735.92 1244.59 738.971 1242.06C744.085 1237.82 754.107 1237.15 761.099 1240.59ZM1296.94 1240.81C1302.46 1244.03 1303.89 1247.15 1304.36 1256.99L1304.79 1266H1287.17H1269.55V1258.47C1269.55 1247.14 1272.22 1242.36 1280.23 1239.4C1284.82 1237.7 1292.76 1238.37 1296.94 1240.81ZM1468.94 1240.81C1474.54 1244.08 1476.01 1247.28 1476.39 1257.07L1476.74 1266H1459.14H1441.55V1257.95C1441.55 1246.83 1444.09 1242.41 1452.23 1239.4C1456.82 1237.7 1464.76 1238.37 1468.94 1240.81ZM634.354 1275.49C634.523 1275.65 634.748 1280.67 634.854 1286.64C635.081 1299.5 634.149 1301.44 625.759 1305.63C621.308 1307.85 619.652 1308.17 615.274 1307.65C606.137 1306.57 601.325 1301.29 600.788 1291.74C600.203 1281.34 604.902 1276.14 615.861 1275.09C621.565 1274.54 633.638 1274.8 634.354 1275.49ZM1643.55 1309.5V1316H1649.55H1655.55V1309.5V1303H1649.55H1643.55V1309.5Z" fill="#1B1B1F"/>
</svg>
